<?xml version="1.0" standalone="no"?>
<!DOCTYPE svg PUBLIC "-//W3C//DTD SVG 20010904//EN"
 "http://www.w3.org/TR/2001/REC-SVG-20010904/DTD/svg10.dtd">
<svg version="1.0" xmlns="http://www.w3.org/2000/svg"
 width="512.000000pt" height="512.000000pt" viewBox="0 0 512.000000 512.000000"
 preserveAspectRatio="xMidYMid meet">
<metadata>
Created by potrace 1.14, written by Peter Selinger 2001-2017
</metadata>
<g transform="translate(0.000000,512.000000) scale(0.100000,-0.100000)"
fill="#000000" stroke="none">
<path d="M654 4599 c-50 -26 -54 -48 -54 -328 l0 -261 -263 0 c-278 0 -286 -1
-324 -50 -10 -12 -12 -357 -13 -1543 0 -1637 -2 -1569 47 -1593 10 -5 448 -12
973 -15 525 -3 970 -9 988 -12 85 -17 214 -67 302 -118 32 -18 125 -89 169
-129 64 -57 105 -53 184 19 128 115 283 193 457 228 14 3 154 8 311 12 311 7
310 6 335 66 17 42 7 81 -28 111 l-30 25 -272 -2 c-344 -2 -466 -24 -650 -116
-37 -19 -70 -33 -72 -31 -9 10 85 138 138 189 59 56 157 115 228 137 33 11
210 43 310 57 25 3 52 8 60 10 8 2 35 7 60 10 25 3 57 8 72 11 23 3 241 38
378 60 19 3 105 16 190 30 155 25 167 26 250 39 53 9 78 20 102 49 16 20 17
75 18 874 l0 852 200 200 200 200 0 -1284 0 -1285 -219 -3 c-245 -3 -251 -5
-271 -77 -8 -28 -6 -41 8 -65 31 -54 44 -56 335 -56 294 0 314 3 337 59 7 18
10 510 8 1601 l-3 1575 -33 67 c-89 183 -278 270 -472 218 -25 -6 -55 -18 -67
-26 l-23 -14 0 121 c0 96 -4 127 -17 150 -23 38 -61 52 -120 44 -26 -4 -59 -9
-73 -11 -14 -1 -52 -7 -85 -13 -33 -6 -130 -22 -215 -35 -321 -51 -476 -76
-515 -81 -22 -4 -51 -8 -65 -11 -14 -2 -97 -15 -185 -30 -199 -31 -215 -36
-330 -89 -121 -55 -251 -168 -321 -279 -16 -25 -31 -46 -34 -46 -3 0 -18 21
-35 48 -16 26 -64 81 -105 123 -140 140 -303 213 -547 245 -20 2 -48 6 -62 9
-132 22 -212 35 -246 39 -22 4 -51 8 -65 11 -14 2 -43 7 -65 10 -22 3 -110 17
-195 31 -527 85 -555 89 -586 73z m227 -219 c30 -5 68 -11 84 -14 17 -2 59 -9
95 -14 36 -6 83 -13 105 -17 22 -3 51 -8 65 -10 159 -26 211 -35 243 -39 20
-3 54 -9 75 -12 20 -3 89 -14 152 -24 63 -10 135 -21 160 -25 195 -27 313 -80
419 -185 68 -68 136 -181 155 -255 4 -16 11 -39 14 -50 4 -11 8 -598 9 -1304
l3 -1283 -57 52 c-121 111 -269 184 -418 207 -16 2 -68 11 -115 18 -47 8 -103
17 -125 20 -22 3 -66 11 -98 16 -32 6 -70 12 -85 14 -15 2 -72 11 -127 20 -55
9 -113 18 -130 21 -16 2 -41 6 -55 9 -14 2 -47 7 -75 10 -27 4 -57 8 -65 10
-16 5 -23 6 -180 31 -58 9 -111 17 -117 17 -19 0 -19 2797 0 2797 7 0 38 -4
68 -10z m3439 -129 l0 -138 -480 -480 -481 -480 -75 -164 c-42 -90 -84 -182
-94 -204 -10 -22 -28 -62 -40 -90 -13 -27 -39 -86 -60 -130 -115 -246 -121
-270 -77 -320 43 -49 75 -43 305 62 259 118 255 116 327 148 33 15 110 51 171
80 l111 52 196 197 197 196 0 -692 0 -693 -183 -29 c-100 -16 -191 -30 -202
-32 -22 -4 -316 -50 -375 -60 -19 -3 -73 -11 -120 -19 -47 -8 -107 -17 -135
-20 -118 -15 -301 -58 -362 -85 -62 -28 -176 -99 -198 -124 -6 -6 -28 -27 -48
-46 l-37 -34 1 1269 c0 1214 1 1273 19 1343 43 164 157 311 298 385 40 21 82
41 95 44 52 12 205 42 247 47 25 3 55 8 67 10 11 3 43 8 70 12 26 3 57 8 68
10 11 2 40 7 65 10 25 3 52 7 61 10 9 3 33 7 54 9 20 3 107 17 193 31 86 14
173 27 192 30 19 3 67 11 105 17 39 7 82 13 98 15 l27 2 0 -139z m492 -127
c67 -35 107 -106 104 -184 -3 -73 -19 -100 -115 -195 l-81 -80 -141 141 -141
141 79 78 c43 42 88 84 101 93 50 33 137 36 194 6z m-4210 -1488 l3 -1174 24
-21 c31 -27 23 -26 341 -75 19 -3 46 -8 60 -10 14 -3 43 -7 65 -10 22 -4 51
-8 65 -11 14 -2 41 -6 60 -9 33 -5 207 -32 260 -41 14 -2 43 -7 65 -10 22 -4
110 -18 195 -31 85 -14 170 -27 189 -30 114 -15 250 -79 334 -157 51 -47 152
-185 143 -194 -2 -3 -35 11 -72 30 -85 42 -208 83 -294 97 -36 6 -76 12 -90
14 -14 3 -413 5 -887 5 l-863 1 0 1400 0 1400 200 0 200 0 2 -1174z m3833
1030 c74 -74 135 -139 135 -143 0 -4 -159 -167 -353 -361 l-353 -353 -141 141
-141 141 356 354 c195 195 357 355 358 355 2 0 65 -61 139 -134z m-850 -863
c101 -103 105 -108 83 -117 -13 -6 -65 -30 -116 -53 -51 -24 -94 -43 -96 -43
-3 0 -39 -16 -81 -36 -42 -20 -78 -34 -80 -32 -5 5 169 387 177 388 3 0 54
-48 113 -107z"/>
<path d="M4054 1149 c-25 -13 -54 -60 -54 -89 0 -46 32 -84 79 -95 42 -9 83 8
105 45 49 84 -42 181 -130 139z"/>
</g>
</svg>
